<svg xmlns="http://www.w3.org/2000/svg" viewBox="0 0 82.95 64.57"><title>chat-black</title><g id="Capa_2" data-name="Capa 2"><g id="Capa_1-2" data-name="Capa 1"><path d="M35,55.26a3.69,3.69,0,0,1,2.11-.66H73a8.89,8.89,0,0,0,8.89-8.89V10A8.89,8.89,0,0,0,73,1.06H10A8.89,8.89,0,0,0,1.06,10V45.7A8.89,8.89,0,0,0,10,54.59h8.28a1.83,1.83,0,0,1,1.83,1.82v4.75a2.34,2.34,0,0,0,3.67,1.92Z" style="fill:none;stroke:#211915;stroke-linecap:round;stroke-miterlimit:10;stroke-width:2.12598419189453px"/><circle cx="24.32" cy="27.75" r="4.46" style="fill:none;stroke:#211915;stroke-linecap:round;stroke-miterlimit:10;stroke-width:2.12598419189453px"/><circle cx="41.48" cy="27.75" r="4.46" style="fill:none;stroke:#211915;stroke-linecap:round;stroke-miterlimit:10;stroke-width:2.12598419189453px"/><circle cx="58.63" cy="27.75" r="4.46" style="fill:none;stroke:#211915;stroke-linecap:round;stroke-miterlimit:10;stroke-width:2.12598419189453px"/></g></g></svg>