<svg xmlns="http://www.w3.org/2000/svg" xmlns:xlink="http://www.w3.org/1999/xlink" viewBox="0 0 81.98 81.98"><defs><clipPath id="clip-path" transform="translate(0 0)"><rect width="81.98" height="81.98" style="fill:none"/></clipPath></defs><title>ig</title><g id="Capa_2" data-name="Capa 2"><g id="Capa_1-2" data-name="Capa 1"><g style="clip-path:url(#clip-path)"><path d="M41,7.39c10.94,0,12.24,0,16.56.24A22.73,22.73,0,0,1,65.16,9a12.69,12.69,0,0,1,4.71,3.07,12.69,12.69,0,0,1,3.07,4.71,22.69,22.69,0,0,1,1.41,7.61c.2,4.32.24,5.62.24,16.56s0,12.24-.24,16.56a22.68,22.68,0,0,1-1.41,7.61,13.57,13.57,0,0,1-7.78,7.78,22.69,22.69,0,0,1-7.61,1.41c-4.32.2-5.62.24-16.56.24s-12.24,0-16.56-.24a22.71,22.71,0,0,1-7.61-1.41,12.7,12.7,0,0,1-4.71-3.07A12.72,12.72,0,0,1,9,65.16a22.68,22.68,0,0,1-1.41-7.61c-.2-4.32-.24-5.62-.24-16.56s0-12.24.24-16.56A22.69,22.69,0,0,1,9,16.81,12.7,12.7,0,0,1,12.1,12.1,12.7,12.7,0,0,1,16.81,9a22.74,22.74,0,0,1,7.61-1.41C28.75,7.43,30,7.39,41,7.39M41,0C29.86,0,28.46,0,24.09.25a30.12,30.12,0,0,0-10,1.9A20.1,20.1,0,0,0,6.88,6.88a20.07,20.07,0,0,0-4.73,7.26A30.05,30.05,0,0,0,.25,24.09C0,28.46,0,29.86,0,41s0,12.53.25,16.9a30.07,30.07,0,0,0,1.91,9.95A20.08,20.08,0,0,0,6.88,75.1a20.08,20.08,0,0,0,7.26,4.73,30,30,0,0,0,10,1.9c4.37.2,5.77.25,16.9.25s12.53,0,16.9-.25a30,30,0,0,0,9.95-1.9,21,21,0,0,0,12-12,30.09,30.09,0,0,0,1.91-9.95c.2-4.37.25-5.77.25-16.9s0-12.53-.25-16.9a30.08,30.08,0,0,0-1.91-9.95A20.08,20.08,0,0,0,75.1,6.88a20.1,20.1,0,0,0-7.26-4.73A30.12,30.12,0,0,0,57.89.25C53.52,0,52.12,0,41,0" transform="translate(0 0)" style="fill:#fff"/><path d="M41,19.94A21,21,0,1,0,62,41a21,21,0,0,0-21-21m0,34.71A13.66,13.66,0,1,1,54.65,41,13.66,13.66,0,0,1,41,54.65" transform="translate(0 0)" style="fill:#fff"/><path d="M67.79,19.11a4.92,4.92,0,1,1-4.92-4.92,4.92,4.92,0,0,1,4.92,4.92" transform="translate(0 0)" style="fill:#fff"/></g></g></g></svg>