<svg xmlns="http://www.w3.org/2000/svg" xmlns:xlink="http://www.w3.org/1999/xlink" viewBox="0 0 82.39 82.39"><defs><clipPath id="clip-path" transform="translate(0)"><rect width="82.39" height="82.39" style="fill:none"/></clipPath></defs><title>tw</title><g id="Capa_2" data-name="Capa 2"><g id="Capa_1-2" data-name="Capa 1"><g style="clip-path:url(#clip-path)"><path d="M41.2,0a41.2,41.2,0,1,0,41.2,41.2A41.2,41.2,0,0,0,41.2,0M61.89,33.39c0,.43,0,.85,0,1.28,0,13.12-10,28.26-28.26,28.26a28.12,28.12,0,0,1-15.22-4.46,20.17,20.17,0,0,0,2.37.14,19.92,19.92,0,0,0,12.33-4.25,9.94,9.94,0,0,1-9.28-6.9,9.9,9.9,0,0,0,4.48-.17,9.93,9.93,0,0,1-8-9.74s0-.08,0-.13a9.87,9.87,0,0,0,4.5,1.24,9.94,9.94,0,0,1-3.07-13.26A28.2,28.2,0,0,0,42.28,35.78,9.94,9.94,0,0,1,59.2,26.73a19.91,19.91,0,0,0,6.31-2.41,10,10,0,0,1-4.37,5.49,19.82,19.82,0,0,0,5.7-1.56,20.2,20.2,0,0,1-5,5.14" transform="translate(0)" style="fill:#fff"/></g></g></g></svg>