<svg xmlns="http://www.w3.org/2000/svg" xmlns:xlink="http://www.w3.org/1999/xlink" viewBox="0 0 81.6 81.99"><defs><clipPath id="clip-path"><rect width="81.6" height="81.99" style="fill:none"/></clipPath></defs><title>whatsapp_1</title><g id="Capa_2" data-name="Capa 2"><g id="Capa_1-2" data-name="Capa 1"><g style="clip-path:url(#clip-path)"><path d="M69.71,11.91a40.64,40.64,0,0,0-63.95,49L0,82l21.54-5.65A40.59,40.59,0,0,0,41,81.29h0A40.65,40.65,0,0,0,69.71,11.91M41,74.43h0a33.72,33.72,0,0,1-17.19-4.71L22.54,69,9.76,72.34l3.41-12.46-.8-1.28A33.77,33.77,0,1,1,41,74.43M59.49,49.13c-1-.51-6-3-6.94-3.3s-1.61-.51-2.28.51-2.62,3.3-3.22,4-1.18.76-2.2.25a27.7,27.7,0,0,1-8.16-5,30.57,30.57,0,0,1-5.65-7c-.59-1-.06-1.56.44-2.07s1-1.19,1.52-1.78A7,7,0,0,0,34,33a1.87,1.87,0,0,0-.08-1.78c-.25-.51-2.28-5.51-3.13-7.54s-1.66-1.71-2.28-1.74-1.27,0-1.95,0a3.73,3.73,0,0,0-2.71,1.27,11.39,11.39,0,0,0-3.55,8.47c0,5,3.64,9.82,4.15,10.5S31.63,53,41.81,57.43a58.22,58.22,0,0,0,5.79,2.14A13.9,13.9,0,0,0,54,60c2-.29,6-2.46,6.85-4.83s.85-4.4.59-4.83-.93-.68-1.94-1.19" style="fill:#fff;fill-rule:evenodd"/></g></g></g></svg>