<svg version="1.1" id="Capa_1" focusable="false" xmlns="http://www.w3.org/2000/svg" xmlns:xlink="http://www.w3.org/1999/xlink" x="0px" y="0px" viewBox="0 0 428 524" style="enable-background:new 0 0 428 524;" xml:space="preserve">
<style type="text/css">
	.st0{fill:#ffffff;stroke-width:0;stroke-miterlimit:10;}
</style>
<path class="st0" d="M104.1,7c34.9,0,63.2,28.4,63.2,63.2s-28.4,63.2-63.2,63.2s-63.2-28.4-63.2-63.2S69.3,7,104.1,7 M151.6,149.3  h-11.2c-22.4,10.3-49.1,10.8-72.4,0H56.8c-26.2,0-47.5,21.3-47.5,47.5v134.4c0,13,10.6,23.7,23.7,23.7h15.9v134.4  c0,13,10.6,23.7,23.7,23.7h63.2c13,0,23.7-10.6,23.7-23.7V354.9h15.9c13,0,23.7-10.6,23.7-23.7V196.8  C199.1,170.6,177.9,149.3,151.6,149.3z"/>
<path class="st0" d="M311.1,7c34.9,0,63.2,28.4,63.2,63.2s-28.4,63.2-63.2,63.2s-63.2-28.4-63.2-63.2S276.3,7,311.1,7 M358.6,149.3  h-11.2c-22.4,10.3-49.1,10.8-72.4,0h-11.2c-26.2,0-47.5,21.3-47.5,47.5v134.4c0,13,10.6,23.7,23.7,23.7h15.9v134.4  c0,13,10.6,23.7,23.7,23.7h63.2c13,0,23.7-10.6,23.7-23.7V354.9h15.9c13,0,23.7-10.6,23.7-23.7V196.8  C406.1,170.6,384.9,149.3,358.6,149.3z"/>
</svg>