<svg xmlns="http://www.w3.org/2000/svg" viewBox="0 0 93.73 58.54"><title>villas-menu-icon-2</title><g id="Capa_2" data-name="Capa 2"><g id="Capa_1-2" data-name="Capa 1"><path d="M1.08,58.54a1.06,1.06,0,0,1-1.06-1A27.74,27.74,0,0,1,26.76,28.8h1a27.55,27.55,0,0,1,19.54,9,1.06,1.06,0,0,1-1.57,1.43,25.43,25.43,0,0,0-18-8.33H26.8A25.62,25.62,0,0,0,2.14,57.44a1.06,1.06,0,0,1-1,1.1Z" style="fill:#ffffff"/><path d="M27.26,30.7A15.35,15.35,0,1,1,42,11h0A15.37,15.37,0,0,1,27.26,30.7Zm0-28.57a13.22,13.22,0,1,0,12.67,9.43A13.18,13.18,0,0,0,27.28,2.13Z" style="fill:#ffffff"/><path d="M92.65,58.54h0a1.06,1.06,0,0,1-1-1.1A25.61,25.61,0,0,0,66.9,30.93H66A25.62,25.62,0,0,0,41.31,57.44a1.06,1.06,0,0,1-2.12.08A27.74,27.74,0,0,1,65.92,28.8h1A27.74,27.74,0,0,1,93.71,57.51,1.06,1.06,0,0,1,92.65,58.54Z" style="fill:#ffffff"/><path d="M66.43,30.7a15.35,15.35,0,0,1-4.37-30,15.34,15.34,0,0,1,17.9,22A15.39,15.39,0,0,1,66.43,30.7Zm0-28.57a13.24,13.24,0,1,0,6.26,1.59A13.26,13.26,0,0,0,66.46,2.13Z" style="fill:#ffffff"/></g></g></svg>