<?xml version="1.0" encoding="utf-8"?>
<!-- Generator: Adobe Illustrator 21.0.0, SVG Export Plug-In . SVG Version: 6.00 Build 0)  -->
<svg version="1.1" id="Capa_2" xmlns="http://www.w3.org/2000/svg" xmlns:xlink="http://www.w3.org/1999/xlink" x="0px" y="0px"
	 viewBox="0 0 428 524" style="enable-background:new 0 0 428 524;" xml:space="preserve">
<style type="text/css">
	.st0{fill:none;stroke:#FFFFFF;stroke-width:10;stroke-miterlimit:10;}
</style>
<path class="st0" d="M250.5,15.3c24.6,0,44.6,20,44.6,44.6s-20,44.6-44.6,44.6s-44.6-20-44.6-44.6S225.9,15.3,250.5,15.3
	 M204.5,357.9C204.5,357.9,201.2,361.8,204.5,357.9c50.5-59.9,85-2.4,85-2.4v-94.8h11.2c9.2,0,16.7-7.5,16.7-16.7v-94.8
	c0-18.5-15-33.5-33.5-33.5H276c-15.8,7.3-34.6,7.6-51.1,0H217c-18.5,0-33.5,15-33.5,33.5V244c0,9.2,7.5,16.7,16.7,16.7L204.5,357.9z
	"/>
<path class="st0" d="M92.2,16c24.6,0,44.6,20,44.6,44.6s-20,44.6-44.6,44.6s-44.6-20-44.6-44.6S67.6,16,92.2,16 M125.7,116.4h-7.9
	c-15.8,7.3-34.6,7.6-51.1,0h-7.9c-18.5,0-33.5,15-33.5,33.5v94.8c0,9.2,7.5,16.7,16.7,16.7h11.2v94.8c0,9.2,7.5,16.7,16.7,16.7h44.6
	c9.2,0,16.7-7.5,16.7-16.7v-94.8h11.2c9.2,0,16.7-7.5,16.7-16.7v-94.8C159.2,131.4,144.2,116.4,125.7,116.4z"/>
<path class="st0" d="M357.3,266c16.8,0,30.5,13.6,30.5,30.5S374.2,327,357.3,327c-16.8,0-30.5-13.6-30.5-30.5S340.5,266,357.3,266
	 M380.2,334.5h-5.4c-10.8,5-23.6,5.2-34.9,0h-5.4c-12.6,0-22.8,10.2-22.8,22.8V422c0,6.3,5.1,11.4,11.4,11.4h7.6v64.7
	c0,6.3,5.1,11.4,11.4,11.4h30.5c6.3,0,11.4-5.1,11.4-11.4v-64.7h7.6c6.3,0,11.4-5.1,11.4-11.4v-64.7
	C403,344.8,392.8,334.5,380.2,334.5z"/>
<path class="st0" d="M250.2,266.5c16.8,0,30.5,13.6,30.5,30.5s-13.6,30.5-30.5,30.5s-30.5-13.6-30.5-30.5S233.4,266.5,250.2,266.5
	 M273.1,335h-5.4c-10.8,5-23.6,5.2-34.9,0h-5.4c-12.6,0-22.8,10.2-22.8,22.8v64.7c0,6.3,5.1,11.4,11.4,11.4h7.6v64.7
	c0,6.3,5.1,11.4,11.4,11.4h30.5c6.3,0,11.4-5.1,11.4-11.4V434h7.6c6.3,0,11.4-5.1,11.4-11.4v-64.7C295.9,345.2,285.7,335,273.1,335z
	"/>
</svg>
