<?xml version="1.0" encoding="utf-8"?>
<!-- Generator: Adobe Illustrator 21.0.0, SVG Export Plug-In . SVG Version: 6.00 Build 0)  -->
<svg version="1.1" id="Capa_1" focusable="false" xmlns="http://www.w3.org/2000/svg" xmlns:xlink="http://www.w3.org/1999/xlink"
	 x="0px" y="0px" viewBox="0 0 428 524" style="enable-background:new 0 0 428 524;" xml:space="preserve">
<style type="text/css">
	.st0{fill:none;stroke:#FFFFFF;stroke-width:10;stroke-miterlimit:10;}
</style>
<path class="st0" d="M234.5,5.3c24.6,0,44.6,20,44.6,44.6s-20,44.6-44.6,44.6s-44.6-20-44.6-44.6S209.9,5.3,234.5,5.3 M188.5,347.9
	C188.5,347.9,185.2,351.8,188.5,347.9c50.5-59.9,85-2.4,85-2.4v-94.8h11.2c9.2,0,16.7-7.5,16.7-16.7v-94.8c0-18.5-15-33.5-33.5-33.5
	H260c-15.8,7.3-34.6,7.6-51.1,0H201c-18.5,0-33.5,15-33.5,33.5V234c0,9.2,7.5,16.7,16.7,16.7L188.5,347.9z"/>
<path class="st0" d="M76.2,6c24.6,0,44.6,20,44.6,44.6s-20,44.6-44.6,44.6s-44.6-20-44.6-44.6S51.6,6,76.2,6 M109.7,106.4h-7.9
	c-15.8,7.3-34.6,7.6-51.1,0h-7.9c-18.5,0-33.5,15-33.5,33.5v94.8c0,9.2,7.5,16.7,16.7,16.7h11.2v94.8c0,9.2,7.5,16.7,16.7,16.7h44.6
	c9.2,0,16.7-7.5,16.7-16.7v-94.8h11.2c9.2,0,16.7-7.5,16.7-16.7v-94.8C143.2,121.4,128.2,106.4,109.7,106.4z"/>
<path class="st0" d="M341.3,256c16.8,0,30.5,13.6,30.5,30.5s-13.6,30.5-30.5,30.5c-16.8,0-30.5-13.6-30.5-30.5S324.5,256,341.3,256
	 M364.2,324.5h-5.4c-10.8,5-23.6,5.2-34.9,0h-5.4c-12.6,0-22.8,10.2-22.8,22.8v64.7c0,6.3,5.1,11.4,11.4,11.4h7.6v64.7
	c0,6.3,5.1,11.4,11.4,11.4h30.5c6.3,0,11.4-5.1,11.4-11.4v-64.7h7.6c6.3,0,11.4-5.1,11.4-11.4v-64.7
	C387,334.8,376.8,324.5,364.2,324.5z"/>
<path class="st0" d="M234.2,256.5c16.8,0,30.5,13.6,30.5,30.5s-13.6,30.5-30.5,30.5s-30.5-13.6-30.5-30.5S217.4,256.5,234.2,256.5
	 M257.1,325h-5.4c-10.8,5-23.6,5.2-34.9,0h-5.4c-12.6,0-22.8,10.2-22.8,22.8v64.7c0,6.3,5.1,11.4,11.4,11.4h7.6v64.7
	c0,6.3,5.1,11.4,11.4,11.4h30.5c6.3,0,11.4-5.1,11.4-11.4V424h7.6c6.3,0,11.4-5.1,11.4-11.4v-64.7C279.9,335.2,269.7,325,257.1,325z
	"/>
</svg>
