<svg xmlns="http://www.w3.org/2000/svg" viewBox="0 0 134.95 60.24"><title>villas-menu-icon-4</title><g id="Capa_2" data-name="Capa 2"><g id="Capa_1-2" data-name="Capa 1"><path d="M24.22,58.54a1.06,1.06,0,0,1-1.06-1A27.77,27.77,0,0,1,49.9,28.8h1a27.53,27.53,0,0,1,16.4,6.08A1.06,1.06,0,0,1,66,36.54a25.4,25.4,0,0,0-15.11-5.61h-.94A25.64,25.64,0,0,0,25.28,57.44a1.06,1.06,0,0,1-1,1.1Z" style="fill:#ffffff"/><path d="M50.43,30.69A15.34,15.34,0,1,1,65.12,11h0A15.35,15.35,0,0,1,50.43,30.69Zm0-28.57A13.24,13.24,0,1,0,56.7,3.72,13.26,13.26,0,0,0,50.44,2.13Z" style="fill:#ffffff"/><path d="M109.6,58.54h0a1.06,1.06,0,0,1-1-1.1A25.62,25.62,0,0,0,83.85,30.93h-.94A25.64,25.64,0,0,0,58.26,57.44a1.06,1.06,0,1,1-2.12.08A27.77,27.77,0,0,1,82.87,28.8h1a27.74,27.74,0,0,1,26.78,28.71A1.06,1.06,0,0,1,109.6,58.54Z" style="fill:#ffffff"/><path d="M83.41,30.69A15.34,15.34,0,1,1,98.1,11h0A15.35,15.35,0,0,1,83.41,30.69Zm0-28.57a13.24,13.24,0,1,0,6.26,1.59A13.26,13.26,0,0,0,83.42,2.13Z" style="fill:#ffffff"/><path d="M133.88,60.24h0a1.06,1.06,0,0,1-1-1.1,18,18,0,0,0-17.35-18.62h-.66a18,18,0,0,0-8.69,2.61A1.06,1.06,0,1,1,105,41.31a20.14,20.14,0,0,1,9.76-2.92h.73a20.15,20.15,0,0,1,19.43,20.82A1.06,1.06,0,0,1,133.88,60.24Z" style="fill:#ffffff"/><path d="M115.14,40.35a11.28,11.28,0,1,1,3.24-.48A11.31,11.31,0,0,1,115.14,40.35Zm0-20.41a9.14,9.14,0,1,0,8.76,6.52A9.12,9.12,0,0,0,115.15,19.94Z" style="fill:#ffffff"/><path d="M1.07,60.24a1.06,1.06,0,0,1-1.06-1,20.15,20.15,0,0,1,19.4-20.82h.73a20,20,0,0,1,8.77,2.34,1.06,1.06,0,1,1-1,1.88,17.82,17.82,0,0,0-7.81-2.09h-.66A18,18,0,0,0,2.14,59.13a1.06,1.06,0,0,1-1,1.1Z" style="fill:#ffffff"/><path d="M19.8,40.34A11.27,11.27,0,1,1,23,39.87,11.28,11.28,0,0,1,19.8,40.34Zm0-20.4a9.14,9.14,0,1,0,8.76,6.52A9.1,9.1,0,0,0,19.79,19.94Z" style="fill:#ffffff"/></g></g></svg>