<?xml version="1.0" encoding="utf-8"?>
<!-- Generator: Adobe Illustrator 21.0.0, SVG Export Plug-In . SVG Version: 6.00 Build 0)  -->
<svg version="1.1" id="Capa_1" focusable="false" xmlns="http://www.w3.org/2000/svg" xmlns:xlink="http://www.w3.org/1999/xlink"
	 x="0px" y="0px" viewBox="0 0 428 524" style="enable-background:new 0 0 428 524;" xml:space="preserve">
<style type="text/css">
	.st0{fill:none;stroke:#FFFFFF;stroke-width:10;stroke-miterlimit:10;}
	.st1{fill:none;stroke:#FFFFFF;stroke-width:6;stroke-miterlimit:10;}
</style>
<path class="st0" d="M65.6,96.4c21.2,0,38.5,17.3,38.5,38.5s-17.3,38.5-38.5,38.5s-38.5-17.3-38.5-38.5S44.4,96.4,65.6,96.4
	 M94.5,183h-6.8c-13.6,6.3-29.8,6.6-44.1,0h-6.8c-16,0-28.9,12.9-28.9,28.9v81.8c0,7.9,6.5,14.4,14.4,14.4h9.7v81.8
	c0,7.9,6.5,14.4,14.4,14.4h38.5c7.9,0,14.4-6.5,14.4-14.4v-81.8h9.7c7.9,0,14.4-6.5,14.4-14.4v-81.8C123.4,195.9,110.4,183,94.5,183
	z"/>
<path class="st0" d="M197.3,96.4c21.2,0,38.5,17.3,38.5,38.5s-17.3,38.5-38.5,38.5s-38.5-17.3-38.5-38.5S176.1,96.4,197.3,96.4
	 M226.2,183h-6.8c-13.6,6.3-29.8,6.6-44.1,0h-6.8c-16,0-28.9,12.9-28.9,28.9v81.8c0,7.9,6.5,14.4,14.4,14.4h9.7v81.8
	c0,7.9,6.5,14.4,14.4,14.4h38.5c7.9,0,14.4-6.5,14.4-14.4v-81.8h9.7c7.9,0,14.4-6.5,14.4-14.4v-81.8
	C255.1,195.9,242.2,183,226.2,183z"/>
<path class="st1" d="M307.8,219.5c12.7,0,23.1,10.4,23.1,23.1c0,12.7-10.4,23.1-23.1,23.1c-12.7,0-23.1-10.4-23.1-23.1
	C284.7,229.9,295,219.5,307.8,219.5 M325.1,271.5H321c-8.2,3.8-17.9,3.9-26.5,0h-4.1c-9.6,0-17.3,7.8-17.3,17.3v49.1
	c0,4.8,3.9,8.6,8.6,8.6h5.8v49.1c0,4.8,3.9,8.6,8.6,8.6h23.1c4.8,0,8.6-3.9,8.6-8.6v-49.1h5.8c4.8,0,8.6-3.9,8.6-8.6v-49.1
	C342.5,279.3,334.7,271.5,325.1,271.5z"/>
<path class="st1" d="M388.4,219.5c12.7,0,23.1,10.4,23.1,23.1c0,12.7-10.4,23.1-23.1,23.1c-12.7,0-23.1-10.4-23.1-23.1
	C365.3,229.9,375.7,219.5,388.4,219.5 M405.7,271.5h-4.1c-8.2,3.8-17.9,3.9-26.5,0h-4.1c-9.6,0-17.3,7.8-17.3,17.3v49.1
	c0,4.8,3.9,8.6,8.6,8.6h5.8v49.1c0,4.8,3.9,8.6,8.6,8.6h23.1c4.8,0,8.6-3.9,8.6-8.6v-49.1h5.8c4.8,0,8.6-3.9,8.6-8.6v-49.1
	C423.1,279.3,415.3,271.5,405.7,271.5z"/>
</svg>
