<?xml version="1.0" encoding="utf-8"?>
<!-- Generator: Adobe Illustrator 21.0.0, SVG Export Plug-In . SVG Version: 6.00 Build 0)  -->
<svg version="1.1" id="Capa_1" xmlns="http://www.w3.org/2000/svg" xmlns:xlink="http://www.w3.org/1999/xlink" x="0px" y="0px"
	 viewBox="0 0 106 100" style="enable-background:new 0 0 106 100;" xml:space="preserve">
<g id="Capa_2">
	<g id="Capa_1-2">
		<g>
			<defs>
				<rect id="SVGID_1_" x="5" y="36" width="96.3" height="27.4"/>
			</defs>
			<clipPath id="SVGID_2_">
				<use xlink:href="#SVGID_1_"  style="overflow:visible;"/>
			</clipPath>
			<g style="clip-path:url(#SVGID_2_);">
				<path d="M100.2,51.3c-4.5,0-6.7,2.8-8.7,5.3s-3.6,4.5-6.9,4.5s-5-2.1-6.9-4.5c-1.9-2.4-4.3-5.3-8.7-5.3s-6.7,2.8-8.7,5.3
					s-3.6,4.5-6.9,4.5s-5-2.1-6.9-4.5c-1.9-2.4-4.3-5.3-8.7-5.3s-6.7,2.8-8.7,5.3s-3.6,4.5-6.9,4.5s-5-2.1-6.9-4.5
					c-1.9-2.4-4.3-5.3-8.7-5.3c-0.6,0-1.2,0.5-1.2,1.2c0,0.6,0.5,1.2,1.2,1.2c3.4,0,5,2.1,6.9,4.5c1.9,2.4,4.3,5.3,8.7,5.3
					s6.7-2.8,8.7-5.3s3.6-4.5,6.9-4.5s5,2.1,6.9,4.5c1.9,2.4,4.3,5.3,8.7,5.3s6.7-2.8,8.7-5.3s3.6-4.5,6.9-4.5s5,2.1,6.9,4.5
					c1.9,2.4,4.3,5.3,8.7,5.3s6.7-2.8,8.7-5.3s3.6-4.5,6.9-4.5c0.6,0,1.2-0.5,1.2-1.1c0,0,0,0,0,0C101.3,51.8,100.8,51.3,100.2,51.3
					"/>
				<path d="M100.2,36c-4.5,0-6.7,2.8-8.7,5.3s-3.6,4.5-6.9,4.5s-5-2.1-6.9-4.5c-1.9-2.4-4.3-5.3-8.7-5.3c-4.5,0-6.7,2.8-8.7,5.3
					s-3.6,4.5-6.9,4.5s-5-2.1-6.9-4.5c-1.9-2.4-4.3-5.3-8.7-5.3s-6.7,2.8-8.7,5.3s-3.6,4.5-6.9,4.5s-5-2.1-6.9-4.5
					C13,38.9,10.6,36,6.2,36C5.5,36,5,36.5,5,37.2c0,0.6,0.5,1.2,1.2,1.2c3.4,0,5,2.1,6.9,4.5c1.9,2.4,4.3,5.3,8.7,5.3
					s6.7-2.8,8.7-5.3s3.6-4.5,6.9-4.5s5,2.1,6.9,4.5c1.9,2.4,4.3,5.3,8.7,5.3s6.7-2.8,8.7-5.3s3.6-4.5,6.9-4.5s5,2.1,6.9,4.5
					c1.9,2.4,4.3,5.3,8.7,5.3s6.7-2.8,8.7-5.3s3.6-4.5,6.9-4.5c0.6,0,1.2-0.5,1.2-1.2c0,0,0,0,0,0C101.3,36.5,100.8,36,100.2,36"/>
			</g>
		</g>
	</g>
</g>
</svg>
