<svg xmlns="http://www.w3.org/2000/svg" xmlns:xlink="http://www.w3.org/1999/xlink" viewBox="0 0 40.83 46.53"><defs><clipPath id="clip-path" transform="translate(0 0)"><rect width="40.83" height="46.53" style="fill:none"/></clipPath></defs><title>villas-icono-contacto</title><g id="Capa_2" data-name="Capa 2"><g id="Capa_1-2" data-name="Capa 1"><g style="clip-path:url(#clip-path)"><path d="M27.43,39.9l-4.87,4.85a3,3,0,0,1-4.28,0L13.45,39.9l-9.51,0a3,3,0,0,1-3-3v-33a3,3,0,0,1,3-3h33a3,3,0,0,1,3,3v33a3,3,0,0,1-3,3Z" transform="translate(0 0)" style="fill:none;stroke:#211915;stroke-miterlimit:10;stroke-width:1.7990000247955322px"/><circle cx="20.42" cy="13.37" r="4.6" transform="translate(-2.97 6.41) rotate(-16.64)" style="fill:none;stroke:#211915;stroke-miterlimit:10;stroke-width:1.7990000247955322px"/><path d="M29,31.46v-2.1A8.6,8.6,0,1,0,11.82,30v1.49Z" transform="translate(0 0)" style="fill:none;stroke:#211915;stroke-miterlimit:10;stroke-width:1.7990000247955322px"/></g></g></g></svg>