<svg xmlns="http://www.w3.org/2000/svg" xmlns:xlink="http://www.w3.org/1999/xlink" viewBox="0 0 106.8 43.64"><defs><clipPath id="clip-path"><rect width="106.8" height="43.64" style="fill:none"/></clipPath></defs><title>villas-icono-van</title><g id="Capa_2" data-name="Capa 2"><g id="Capa_1-2" data-name="Capa 1"><g style="clip-path:url(#clip-path)"><circle cx="89.5" cy="35.36" r="7.22" style="fill:none;stroke:#211915;stroke-miterlimit:10;stroke-width:2.125999927520752px"/><circle cx="17.31" cy="35.36" r="7.22" style="fill:none;stroke:#211915;stroke-miterlimit:10;stroke-width:2.125999927520752px"/><line x1="42.96" y1="1.1" x2="47.54" y2="15.5" style="fill:none;stroke:#211915;stroke-miterlimit:10;stroke-width:2.125999927520752px"/><line x1="25.78" y1="1.42" x2="23.25" y2="15.5" style="fill:none;stroke:#211915;stroke-miterlimit:10;stroke-width:2.125999927520752px"/><path d="M3.85,15.5,5.4,7A7.23,7.23,0,0,1,12.5,1.06H46.18c16.24,0,34.29,14.44,34.29,14.44Z" style="fill:none;stroke:#211915;stroke-miterlimit:10;stroke-width:2.125999927520752px"/><path d="M1.5,28.56c.5-2.72.92-4.9,1.37-7.64L5.4,7a7.22,7.22,0,0,1,7.1-5.93H46.18c16.24,0,34.29,14.44,34.29,14.44s25.26,3.61,25.26,12.63-3.61,9-3.61,9H96.46a7.12,7.12,0,0,0,.26-1.81,7.22,7.22,0,0,0-14.44,0,7.11,7.11,0,0,0,.25,1.81H24.27a7.3,7.3,0,0,0,.25-1.81,7.22,7.22,0,0,0-14.44,0,7.3,7.3,0,0,0,.25,1.81H6.48a5.42,5.42,0,0,1-5.42-5.4,14.23,14.23,0,0,1,.44-3.2Z" style="fill:none;stroke:#211915;stroke-miterlimit:10;stroke-width:2.125999927520752px"/></g></g></g></svg>