<?xml version="1.0" encoding="utf-8"?>
<!-- Generator: Adobe Illustrator 21.0.0, SVG Export Plug-In . SVG Version: 6.00 Build 0)  -->
<svg version="1.1" id="Capa_2_1_" xmlns="http://www.w3.org/2000/svg" xmlns:xlink="http://www.w3.org/1999/xlink" x="0px" y="0px"
	 viewBox="0 0 106 100" style="enable-background:new 0 0 106 100;" xml:space="preserve">
<g id="Capa_2">
	<g id="Capa_1-2">
		<path style="fill:none;stroke:#211915;stroke-width:2.126;stroke-miterlimit:10;" d="M86.8,48.3V51c0,3.2-2.6,5.8-5.7,5.8l0,0
			H25.3c-3.2,0-5.8-2.6-5.8-5.8v-2.7h-9.1v44.1h85V48.3H86.8z"/>
		<line style="fill:none;stroke:#211915;stroke-width:2.126;stroke-miterlimit:10;" x1="24.9" y1="92.4" x2="24.9" y2="56.8"/>
		<line style="fill:none;stroke:#211915;stroke-width:2.126;stroke-miterlimit:10;" x1="52.9" y1="92.4" x2="52.9" y2="56.7"/>
		<line style="fill:none;stroke:#211915;stroke-width:2.126;stroke-miterlimit:10;" x1="80.8" y1="92.4" x2="80.8" y2="57.4"/>
		<path style="fill:none;stroke:#211915;stroke-width:2.126;stroke-miterlimit:10;" d="M17.5,43.1h-4.9l-2.5-8.9
			c-0.2-1,0.4-2,1.4-2.2c0.1,0,0.3,0,0.4,0h6.4c1,0,1.8,0.9,1.8,1.9c0,0.1,0,0.2,0,0.4L17.5,43.1z"/>
		<line style="fill:none;stroke:#211915;stroke-width:2.126;stroke-miterlimit:10;" x1="15.1" y1="43.1" x2="15.1" y2="48.3"/>
		<path style="fill:none;stroke:#211915;stroke-width:2.126;stroke-miterlimit:10;" d="M93.4,43.1h-4.9L86,34.2
			c-0.2-1,0.4-2,1.4-2.2c0.1,0,0.3,0,0.4,0h6.3c1,0,1.8,0.8,1.9,1.8c0,0.1,0,0.3,0,0.4L93.4,43.1z"/>
		<line style="fill:none;stroke:#211915;stroke-width:2.126;stroke-miterlimit:10;" x1="91" y1="43.1" x2="91" y2="48.3"/>
		<polyline style="fill:none;stroke:#211915;stroke-width:2.126;stroke-miterlimit:10;" points="24.9,57.4 24.9,8.1 80.8,8.1 
			80.8,57.4 		"/>
		<rect x="33" y="14.6" style="fill:none;stroke:#211915;stroke-width:2.126;stroke-miterlimit:10;" width="39.7" height="36.3"/>
		<line style="fill:none;stroke:#211915;stroke-width:2.126;stroke-miterlimit:10;" x1="25.7" y1="57.4" x2="53" y2="86.3"/>
		<line style="fill:none;stroke:#211915;stroke-width:2.126;stroke-miterlimit:10;" x1="38" y1="69.4" x2="53" y2="59.8"/>
		<line style="fill:none;stroke:#211915;stroke-width:2.126;stroke-miterlimit:10;" x1="44.4" y1="77.2" x2="24.9" y2="86.3"/>
		<line style="fill:none;stroke:#211915;stroke-width:2.126;stroke-miterlimit:10;" x1="53.7" y1="57.4" x2="81" y2="86.3"/>
		<line style="fill:none;stroke:#211915;stroke-width:2.126;stroke-miterlimit:10;" x1="72.4" y1="77.2" x2="52.9" y2="86.3"/>
	</g>
</g>
</svg>
