<svg xmlns="http://www.w3.org/2000/svg" xmlns:xlink="http://www.w3.org/1999/xlink" viewBox="0 0 50.87 70.72"><defs><clipPath id="clip-path" transform="translate(0)"><rect width="50.87" height="70.72" style="fill:none"/></clipPath></defs><title>villas-icono-lugar</title><g id="Capa_2" data-name="Capa 2"><g id="Capa_1-2" data-name="Capa 1"><g style="clip-path:url(#clip-path)"><path d="M16.78,2.84A26.85,26.85,0,0,1,26,1.06C32,1.06,37.6,3.53,42.7,8.38A22.43,22.43,0,0,1,49.8,24a37.76,37.76,0,0,1-2.39,13.7A74.21,74.21,0,0,1,33.84,60.09c-2.65,3.12-5.62,6.17-8.5,9.13a105.6,105.6,0,0,1-16.25-20C4.83,42.39,2.31,36,1.37,29.69-.42,17.66,5.77,6.87,16.78,2.84Z" transform="translate(0)" style="fill:none;stroke:#211915;stroke-miterlimit:10;stroke-width:2.125999927520752px"/><circle cx="25.43" cy="21.72" r="5.93" style="fill:none;stroke:#211915;stroke-miterlimit:10;stroke-width:2.125999927520752px"/></g></g></g></svg>