<svg xmlns="http://www.w3.org/2000/svg" viewBox="0 0 76.12 76.12"><title>villas-icono-reservar</title><g id="Capa_2" data-name="Capa 2"><g id="Capa_1-2" data-name="Capa 1"><path d="M38.06,76.12A38.06,38.06,0,1,1,76.12,38.06,38.1,38.1,0,0,1,38.06,76.12Zm0-74A35.93,35.93,0,1,0,74,38.06,36,36,0,0,0,38.06,2.13Z" style="fill:#211915"/><path d="M52,21.83H48.76V20a1.42,1.42,0,1,0-2.83,0v1.8H39.48V20a1.42,1.42,0,0,0-2.83,0v1.8H30.2V20a1.42,1.42,0,1,0-2.83,0v1.8H24.12a6.46,6.46,0,0,0-6.46,6.46V50.7a6.46,6.46,0,0,0,6.46,6.46H52a6.46,6.46,0,0,0,6.46-6.46V28.29A6.46,6.46,0,0,0,52,21.83ZM24.12,24h3.24v1.23a1.42,1.42,0,1,0,2.83,0V24h6.44v1.23a1.42,1.42,0,1,0,2.83,0V24h6.44v1.23a1.42,1.42,0,1,0,2.83,0V24H52a4.33,4.33,0,0,1,4.33,4.33v.64H19.79v-.64A4.33,4.33,0,0,1,24.12,24ZM52,55H24.12a4.33,4.33,0,0,1-4.33-4.33V31.76H56.33V50.7A4.33,4.33,0,0,1,52,55Z" style="fill:#211915"/><path d="M28.64,34.56H25.81A2.42,2.42,0,0,0,23.39,37v2.83a2.42,2.42,0,0,0,2.42,2.42h2.83a2.42,2.42,0,0,0,2.42-2.42V37A2.42,2.42,0,0,0,28.64,34.56Zm.3,5.25a.3.3,0,0,1-.3.3H25.81a.3.3,0,0,1-.3-.3V37a.3.3,0,0,1,.3-.3h2.83a.3.3,0,0,1,.3.3Z" style="fill:#211915"/><path d="M39.47,34.56H36.64A2.42,2.42,0,0,0,34.22,37v2.83a2.42,2.42,0,0,0,2.42,2.42h2.83a2.42,2.42,0,0,0,2.42-2.42V37A2.42,2.42,0,0,0,39.47,34.56Zm.3,5.25a.3.3,0,0,1-.3.3H36.64a.3.3,0,0,1-.3-.3V37a.3.3,0,0,1,.3-.3h2.83a.3.3,0,0,1,.3.3Z" style="fill:#211915"/><path d="M50.3,34.56H47.47A2.42,2.42,0,0,0,45.05,37v2.83a2.42,2.42,0,0,0,2.42,2.42H50.3a2.42,2.42,0,0,0,2.42-2.42V37A2.42,2.42,0,0,0,50.3,34.56Zm.3,5.25a.3.3,0,0,1-.3.3H47.47a.3.3,0,0,1-.3-.3V37a.3.3,0,0,1,.3-.3H50.3a.3.3,0,0,1,.3.3Z" style="fill:#211915"/><path d="M28.64,44.68H25.81a2.42,2.42,0,0,0-2.42,2.42v2.83a2.42,2.42,0,0,0,2.42,2.42h2.83a2.42,2.42,0,0,0,2.42-2.42V47.1A2.42,2.42,0,0,0,28.64,44.68Zm.3,5.25a.3.3,0,0,1-.3.3H25.81a.3.3,0,0,1-.3-.3V47.1a.3.3,0,0,1,.3-.3h2.83a.3.3,0,0,1,.3.3Z" style="fill:#211915"/><path d="M39.47,44.68H36.64a2.42,2.42,0,0,0-2.42,2.42v2.83a2.42,2.42,0,0,0,2.42,2.42h2.83a2.42,2.42,0,0,0,2.42-2.42V47.1A2.42,2.42,0,0,0,39.47,44.68Zm.3,5.25a.3.3,0,0,1-.3.3H36.64a.3.3,0,0,1-.3-.3V47.1a.3.3,0,0,1,.3-.3h2.83a.3.3,0,0,1,.3.3Z" style="fill:#211915"/><path d="M50.3,44.68H47.47a2.42,2.42,0,0,0-2.42,2.42v2.83a2.42,2.42,0,0,0,2.42,2.42H50.3a2.42,2.42,0,0,0,2.42-2.42V47.1A2.42,2.42,0,0,0,50.3,44.68Zm.3,5.25a.3.3,0,0,1-.3.3H47.47a.3.3,0,0,1-.3-.3V47.1a.3.3,0,0,1,.3-.3H50.3a.3.3,0,0,1,.3.3Z" style="fill:#211915"/></g></g></svg>