<?xml version="1.0" encoding="utf-8"?>
<!-- Generator: Adobe Illustrator 21.0.0, SVG Export Plug-In . SVG Version: 6.00 Build 0)  -->
<svg version="1.1" id="Capa_2_1_" xmlns="http://www.w3.org/2000/svg" xmlns:xlink="http://www.w3.org/1999/xlink" x="0px" y="0px"
	 viewBox="0 0 106 100" style="enable-background:new 0 0 106 100;" xml:space="preserve">
<style type="text/css">
	.st0{fill:#1E120D;}
</style>
<path class="st0" d="M93.6,34.2c-0.1-0.2-0.3-0.3-0.5-0.4c-0.3-0.1-0.7-0.1-1.1-0.2c-0.4,0-0.8,0-1.1,0.1c-0.7,0.1-1.5,0.3-2.2,0.6
	c-0.4,0.2-0.9,0.4-1.3,0.7v-1.2c0-1.1-0.4-2.2-1.3-3c-0.8-0.8-2.6-1.6-3.9-1.8c0,0-1.2-0.1-1.8,0c-0.5,0.1-0.8,0.4-0.8,0.9
	c0,2.3,2.7,4.8,5.1,4.8h0.9V41h-2.2c-0.9,0-1.7,0.4-2.2,1.1s-0.8,1.6-0.6,2.5l1.9,6.5c0.4,1.5,1.6,2.6,3.1,3v3.5H78V20.4
	c0-7.2-5.8-13-13-13H42.1c-7.2,0-13,5.8-13,13v37.1h-7V54c1.4-0.4,2.6-1.5,3.1-3l1.9-6.6c0.2-0.9,0-1.7-0.6-2.4S25.1,41,24.2,41
	h-2.2v-6.4h0.9c2.4,0,5.1-2.5,5.1-4.8c0-0.5-0.3-0.8-0.8-0.9c-0.6-0.1-1.7,0-1.8,0c-1.2,0.1-3,1-3.8,1.8c-0.8,0.8-1.3,1.9-1.3,3v1.2
	c-0.4-0.3-0.8-0.5-1.3-0.7c-0.7-0.3-1.4-0.5-2.2-0.6c-0.4,0-0.8-0.1-1.2-0.1c-0.3,0-0.7,0-1.1,0.2c-0.2,0.1-0.4,0.2-0.5,0.4
	c-0.2,0.4,0,0.9,0.1,1.3c0.1,0.4,0.3,0.7,0.4,1.1c0.4,0.7,0.9,1.2,1.6,1.7c0.1,0.1,0.2,0.1,0.3,0.2c0.6,0.3,1.2,0.6,1.9,0.7l2,0.1
	V41h-2.5c-0.9,0-1.7,0.4-2.2,1.1c-0.6,0.7-0.8,1.6-0.6,2.5l1.9,6.5c0.4,1.5,1.6,2.6,3.1,3v3.5h-1.2c-0.6,0-1.1,0.5-1.1,1.1
	s0.5,1.1,1.1,1.1H25l-2.5,12.3c-0.7,3.8-0.4,7.7,0.8,11.4l1.2,3.5h-7l0.5,1.4c1.1,3.2,4.2,5.4,7.5,5.4h55.6c3.4,0,6.4-2.2,7.5-5.4
	l0.5-1.4h-7.1l1.2-3.5c1.3-3.7,1.6-7.7,0.8-11.4l-2.3-12.3h6.1c0.6,0,1.1-0.5,1.1-1.1s-0.5-1.1-1.1-1.1h-0.1V54
	c1.4-0.4,2.6-1.5,3.1-3l1.9-6.6c0.2-0.9,0-1.7-0.6-2.4S90.7,41,89.8,41h-2.5v-1.8l2-0.1c0.6-0.1,1.3-0.3,1.9-0.6
	c0.1-0.1,0.2-0.1,0.3-0.2c0.7-0.4,1.2-1,1.6-1.7c0.2-0.3,0.3-0.7,0.5-1.1C93.6,35.1,93.8,34.6,93.6,34.2z M20.2,37.5
	c-0.4,0-1,0-1.7-0.2c-1.1-0.3-2.6-1.3-2.6-2.1c0.2-0.1,0.5-0.1,0.8-0.1C17.9,35.2,19.7,36.4,20.2,37.5z M22.2,32.8
	c0.5-1.1,2.1-2.1,3.3-2.3c0.2,0,0.5,0,0.7,0c-0.5,1.1-2.2,2.2-3.3,2.3C22.7,32.8,22.4,32.8,22.2,32.8z M19,50.5L17.1,44
	c-0.1-0.3,0.1-0.5,0.2-0.6s0.3-0.3,0.6-0.3h6.4c0.3,0,0.5,0.2,0.6,0.3c0.1,0.1,0.2,0.3,0.2,0.6l-1.9,6.5C22.9,51.4,22,52,21.1,52
	S19.2,51.4,19,50.5z M75.8,20.4v37.1H54.3v-48H65C71,9.5,75.8,14.4,75.8,20.4z M67.3,75.9c0.1,1.2,0,2.2-0.1,3.5l-0.9,7.5h-12V59.6
	h11.9L67.3,75.9z M40.1,86.8l-0.9-7.5c-0.1-1.3-0.2-2.4-0.1-3.6l1.1-16.1h12v27.2H40.1z M31.3,20.4c0-6,4.9-10.9,10.9-10.9h10.1v48
	H31.3V20.4z M25.4,82.6c-1.2-3.4-1.4-7-0.8-10.3l2.5-12.7h11l-1.1,16c-0.1,1.4,0,2.6,0.1,3.9l0.9,7.4H26.8L25.4,82.6z M81.1,91.5
	H25.5c-1.9,0-3.7-1-4.8-2.6h65.2C84.8,90.5,83,91.5,81.1,91.5z M81.9,72.3c0.7,3.4,0.4,7-0.8,10.3l-1.5,4.2H68.5l0.8-7.2l0-0.1
	c0.1-1.3,0.2-2.5,0.1-3.8l-1-16.1h11.1L81.9,72.3z M85.5,32.8c-0.2,0-0.4,0-0.7,0l0,0c-1.1-0.1-2.8-1.2-3.3-2.3c0.2,0,0.4,0,0.7,0
	C83.4,30.7,85,31.8,85.5,32.8z M91.9,35.2c-0.1,0.8-1.5,1.8-2.6,2.1c-0.7,0.1-1.3,0.2-1.7,0.2c0.5-1.1,2.3-2.2,3.5-2.3
	C91.4,35.1,91.7,35.2,91.9,35.2z M90.4,43.4c0.1,0.1,0.2,0.3,0.2,0.6l-1.9,6.5c-0.3,0.9-1.1,1.6-2.1,1.6s-1.8-0.6-2.1-1.6L82.7,44
	c-0.1-0.3,0.1-0.5,0.2-0.6c0.1-0.1,0.3-0.3,0.6-0.3h6.4C90.2,43.1,90.3,43.3,90.4,43.4z"/>
</svg>
