<?xml version="1.0" encoding="utf-8"?>
<!-- Generator: Adobe Illustrator 21.0.0, SVG Export Plug-In . SVG Version: 6.00 Build 0)  -->
<svg version="1.1" id="Capa_2_1_" xmlns="http://www.w3.org/2000/svg" xmlns:xlink="http://www.w3.org/1999/xlink" x="0px" y="0px"
	 viewBox="0 0 106 100" style="enable-background:new 0 0 106 100;" xml:space="preserve">
<g id="Capa_2">
	<g id="Capa_1-2">
		<g>
			<defs>
				<rect id="SVGID_1_" x="8" y="17" width="89.7" height="66.1"/>
			</defs>
			<clipPath id="SVGID_2_">
				<use xlink:href="#SVGID_1_"  style="overflow:visible;"/>
			</clipPath>
			<g style="clip-path:url(#SVGID_2_);">
				<path style="fill:none;stroke:#211915;stroke-width:2.126;stroke-miterlimit:10;" d="M17.9,45V19.7c0-0.9,0.7-1.6,1.6-1.6l0,0
					h66.1c0.9,0,1.6,0.7,1.6,1.6V45"/>
				<path style="fill:none;stroke:#211915;stroke-width:2.126;stroke-miterlimit:10;" d="M96.6,73.9H9.1V52.3c0-3.9,3.2-7.1,7.1-7.1
					h73.4c3.9,0,7.1,3.2,7.1,7.1l0,0V73.9z"/>
				
					<line style="fill:none;stroke:#211915;stroke-width:2.126;stroke-linecap:round;stroke-linejoin:round;" x1="17.9" y1="73.9" x2="17.9" y2="82.1"/>
				
					<line style="fill:none;stroke:#211915;stroke-width:2.126;stroke-linecap:round;stroke-linejoin:round;" x1="87.3" y1="73.9" x2="87.3" y2="82.1"/>
				
					<line style="fill:none;stroke:#211915;stroke-width:2.126;stroke-linecap:round;stroke-linejoin:round;" x1="9.1" y1="63.6" x2="96.6" y2="63.6"/>
				<path style="fill:none;stroke:#211915;stroke-width:2.126;stroke-linecap:round;stroke-linejoin:round;" d="M52.6,45.3H30v-4.1
					c0-3.9,3.2-7.2,7.1-7.2c0,0,0.1,0,0.1,0h8.3c3.9,0,7.2,3.2,7.2,7.2l0,0L52.6,45.3z"/>
				<path style="fill:none;stroke:#211915;stroke-width:2.126;stroke-linecap:round;stroke-linejoin:round;" d="M75.2,45.3H52.6
					v-4.1c0-3.9,3.2-7.2,7.1-7.2c0,0,0,0,0,0h8.3c3.9,0,7.2,3.2,7.2,7.2V45.3z"/>
			</g>
		</g>
	</g>
</g>
</svg>
