<?xml version="1.0" encoding="utf-8"?>
<!-- Generator: Adobe Illustrator 21.0.0, SVG Export Plug-In . SVG Version: 6.00 Build 0)  -->
<svg version="1.1" id="Capa_2_1_" xmlns="http://www.w3.org/2000/svg" xmlns:xlink="http://www.w3.org/1999/xlink" x="0px" y="0px"
	 viewBox="0 0 106 100" style="enable-background:new 0 0 106 100;" xml:space="preserve">
<g id="Capa_2">
	<g id="Capa_1-2">
		<g>
			<g>
				<defs>
					<rect id="SVGID_1_" x="31" y="19" width="43" height="62.4"/>
				</defs>
				<clipPath id="SVGID_2_">
					<use xlink:href="#SVGID_1_"  style="overflow:visible;"/>
				</clipPath>
				<g style="clip-path:url(#SVGID_2_);">
					<path style="fill:none;stroke:#211915;stroke-width:2.126;stroke-miterlimit:10;" d="M56.9,46.5v-1.3c0.1-3.4-2.5-6.4-6-6.5
						s-6.4,2.5-6.5,6c0,0.2,0,0.3,0,0.5v1.2C37,49,32.1,56,32.1,63.8H69C68.9,56.1,64.1,49.2,56.9,46.5z"/>
					<path style="fill:none;stroke:#211915;stroke-width:2.126;stroke-linecap:round;stroke-linejoin:round;" d="M51,39v-6.8
						c0-2.5,1.2-4.9,3.3-6.4S72.9,20,72.9,20"/>
					
						<line style="fill:none;stroke:#211915;stroke-width:2.126;stroke-linecap:round;stroke-linejoin:round;" x1="37.6" y1="71.3" x2="37.6" y2="80.4"/>
					
						<line style="fill:none;stroke:#211915;stroke-width:2.126;stroke-linecap:round;stroke-linejoin:round;" x1="46.6" y1="71.3" x2="46.6" y2="80.4"/>
					
						<line style="fill:none;stroke:#211915;stroke-width:2.126;stroke-linecap:round;stroke-linejoin:round;" x1="55" y1="71.3" x2="55" y2="80.4"/>
					
						<line style="fill:none;stroke:#211915;stroke-width:2.126;stroke-linecap:round;stroke-linejoin:round;" x1="63.4" y1="71.3" x2="63.4" y2="80.4"/>
				</g>
			</g>
		</g>
	</g>
</g>
</svg>
