<?xml version="1.0" encoding="utf-8"?>
<!-- Generator: Adobe Illustrator 21.0.0, SVG Export Plug-In . SVG Version: 6.00 Build 0)  -->
<svg version="1.1" id="Capa_2_1_" xmlns="http://www.w3.org/2000/svg" xmlns:xlink="http://www.w3.org/1999/xlink" x="0px" y="0px"
	 viewBox="0 0 106 100" style="enable-background:new 0 0 106 100;" xml:space="preserve">
<style type="text/css">
	.st0{clip-path:url(#SVGID_2_);}
	.st1{fill:none;stroke:#211915;stroke-width:2.126;stroke-miterlimit:10;}
	.st2{fill:none;stroke:#211915;stroke-width:2.126;stroke-linecap:round;stroke-linejoin:round;}
	.st3{clip-path:url(#SVGID_4_);}
</style>
<g id="Capa_2">
	<g id="Capa_1-2">
		<g>
			<g>
				<defs>
					<rect id="SVGID_1_" x="58.6" y="35.2" width="40" height="29.5"/>
				</defs>
				<clipPath id="SVGID_2_">
					<use xlink:href="#SVGID_1_"  style="overflow:visible;"/>
				</clipPath>
				<g class="st0">
					<path class="st1" d="M63.1,47.7V36.4c0-0.4,0.3-0.7,0.7-0.7l0,0h29.5c0.4,0,0.7,0.3,0.7,0.7v11.3"/>
					<path class="st1" d="M98.2,60.6H59.1V51c0-1.7,1.4-3.2,3.2-3.2h32.8c1.7,0,3.2,1.4,3.2,3.2l0,0L98.2,60.6L98.2,60.6z"/>
					<line class="st2" x1="63.1" y1="60.6" x2="63.1" y2="64.3"/>
					<line class="st2" x1="94" y1="60.6" x2="94" y2="64.3"/>
					<line class="st2" x1="59.1" y1="56" x2="98.2" y2="56"/>
					<path class="st2" d="M78.5,47.8H68.5V46c0-1.7,1.4-3.2,3.2-3.2h0h3.7c1.7,0,3.2,1.4,3.2,3.2l0,0L78.5,47.8z"/>
					<path class="st2" d="M88.6,47.8H78.5V46c0-1.7,1.4-3.2,3.2-3.2l0,0h3.7c1.7,0,3.2,1.4,3.2,3.2V47.8z"/>
				</g>
			</g>
		</g>
	</g>
</g>
<g id="Capa_2_2_">
	<g id="Capa_1-2_1_">
		<g>
			<g>
				<defs>
					<rect id="SVGID_3_" x="7.1" y="35.2" width="40" height="29.5"/>
				</defs>
				<clipPath id="SVGID_4_">
					<use xlink:href="#SVGID_3_"  style="overflow:visible;"/>
				</clipPath>
				<g class="st3">
					<path class="st1" d="M11.5,47.7V36.4c0-0.4,0.3-0.7,0.7-0.7l0,0h29.5c0.4,0,0.7,0.3,0.7,0.7v11.3"/>
					<path class="st1" d="M46.6,60.6H7.6V51c0-1.7,1.4-3.2,3.2-3.2h32.8c1.7,0,3.2,1.4,3.2,3.2l0,0L46.6,60.6L46.6,60.6z"/>
					<line class="st2" x1="11.5" y1="60.6" x2="11.5" y2="64.3"/>
					<line class="st2" x1="42.5" y1="60.6" x2="42.5" y2="64.3"/>
					<line class="st2" x1="7.6" y1="56" x2="46.6" y2="56"/>
					<path class="st2" d="M27,47.8H16.9V46c0-1.7,1.4-3.2,3.2-3.2h0h3.7c1.7,0,3.2,1.4,3.2,3.2l0,0L27,47.8z"/>
					<path class="st2" d="M37.1,47.8H27V46c0-1.7,1.4-3.2,3.2-3.2l0,0h3.7c1.7,0,3.2,1.4,3.2,3.2V47.8z"/>
				</g>
			</g>
		</g>
	</g>
</g>
</svg>
