<?xml version="1.0" encoding="utf-8"?>
<!-- Generator: Adobe Illustrator 21.0.0, SVG Export Plug-In . SVG Version: 6.00 Build 0)  -->
<svg version="1.1" id="Capa_1" xmlns="http://www.w3.org/2000/svg" xmlns:xlink="http://www.w3.org/1999/xlink" x="0px" y="0px"
	 viewBox="0 0 106 100" style="enable-background:new 0 0 106 100;" xml:space="preserve">
<g id="Capa_2">
	<g id="Capa_1-2">
		<g>
			<g>
				<defs>
					<rect id="SVGID_1_" x="13" y="11" width="80" height="79.9"/>
				</defs>
				<clipPath id="SVGID_2_">
					<use xlink:href="#SVGID_1_"  style="overflow:visible;"/>
				</clipPath>
				<g style="clip-path:url(#SVGID_2_);">
					<path d="M22.7,41.1c-1.5-4,0.5-8.5,4.5-10c2.4-0.9,5.1-0.6,7.2,0.9C27.3,32.4,24,37.9,22.7,41.1 M15.2,30.5
						c1.1-5.6,6.6-9.3,12.3-8.2c4,0.8,7.2,3.9,8.1,7.9C27.3,24.2,18.9,28.2,15.2,30.5 M20.9,16.2c-0.5,0-1,0-1.4,0
						c3.4-3.9,9.3-4.3,13.2-1c2.6,2.3,3.8,5.8,3,9.2C32,17.4,25.1,16.2,20.9,16.2 M38.2,19.6c1.2-3.9,4.8-6.6,8.9-6.6
						c0.9,0,1.9,0.1,2.7,0.4c1.7,0.5,3.2,1.5,4.3,2.8c-4-0.3-12.1,0.3-16.1,8.3C37.7,22.9,37.7,21.2,38.2,19.6z M58.6,30.5
						c-3.3-2.1-7.1-3.3-11-3.5c-3.4,0-6.7,1.1-9.5,3.2c1.3-5.6,6.9-9.2,12.6-7.8C54.7,23.3,57.8,26.5,58.6,30.5z M51.8,37.2
						c0.2,1.3,0,2.7-0.4,3.9c-1.3-3.2-4.7-8.7-11.7-9.1c3.5-2.5,8.3-1.7,10.8,1.8C51.1,34.8,51.6,35.9,51.8,37.2 M40.6,88.9H38V34
						c9.6-0.6,12,9.3,12.1,9.7s0.4,0.7,0.8,0.8h0.2c0.3,0,0.6-0.1,0.8-0.4c3.2-4.3,2.3-10.4-2-13.6l0,0c-0.8-0.6-1.8-1.1-2.8-1.5
						c1.7,0,3.3,0.2,5,0.6c2.6,0.8,5,2,7.1,3.7c0.4,0.4,1.1,0.3,1.4-0.1c0.2-0.2,0.2-0.4,0.2-0.7c0-6.9-5.6-12.4-12.5-12.4
						c-1.8,0-3.6,0.4-5.2,1.1c5.3-4.4,12.5-2.9,13-2.8s1.1-0.3,1.2-0.8c0-0.2,0-0.4-0.1-0.6c-2.9-5.5-9.8-7.6-15.3-4.7
						c-2.2,1.2-4,3.1-5,5.4c-2.6-5.7-9.3-8.3-15-5.7c-2.3,1-4.2,2.8-5.4,5c-0.3,0.5-0.1,1.1,0.4,1.4c0.2,0.1,0.5,0.1,0.7,0.1
						c2.3-0.4,4.7-0.4,7.1,0.1c2.1,0.4,4.1,1.3,5.8,2.7c-6.2-2.8-13.6,0-16.4,6.2C13.4,29,13,30.8,13,32.6c0,0.4,0.2,0.7,0.6,0.9
						c0.4,0.2,0.8,0.1,1.1-0.1c2.1-1.6,4.5-2.9,7-3.6c1.7-0.5,3.4-0.8,5.2-0.7c-5.1,1.7-7.9,7.2-6.2,12.3c0.3,1,0.8,2,1.5,2.8
						c0.2,0.3,0.5,0.4,0.8,0.4h0.2c0.4-0.1,0.7-0.4,0.8-0.8c0.1-0.4,2.5-10.3,12.1-9.7V89h-2.5c-0.6,0-1,0.4-1,1s0.4,1,1,1h7.1
						c0.6,0,1-0.4,1-1S41.1,88.9,40.6,88.9z"/>
					<path d="M79.8,67.2c-3.4,0-6.7,1.1-9.5,3.2c1.3-5.6,6.9-9.2,12.6-7.8c4,0.9,7.1,4.1,7.9,8.1C87.5,68.5,83.7,67.3,79.8,67.2z
						 M83.6,81.2c-1.3-3.2-4.7-8.7-11.7-9.1c3.5-2.5,8.3-1.7,10.8,1.8C84.1,76,84.5,78.7,83.6,81.2z M54.9,81.2
						c-1.5-4,0.5-8.5,4.5-10c0.9-0.3,1.8-0.5,2.7-0.5c0.4,0,0.8,0,1.1,0.1c1.2,0.2,2.4,0.6,3.4,1.4C59.6,72.5,56.2,78,54.9,81.2
						L54.9,81.2z M47.4,70.6c1.1-5.6,6.6-9.3,12.3-8.2c4,0.8,7.2,3.9,8.1,7.9C59.6,64.3,51.1,68.3,47.4,70.6 M53.1,56.3
						c-0.5,0-1,0-1.4,0c3.4-3.9,9.3-4.4,13.2-1c2.7,2.3,3.8,5.9,3,9.3C64.2,57.5,57.3,56.3,53.1,56.3z M75,54.2
						c1.3-0.7,2.8-1.1,4.4-1.1c2.7,0,5.3,1.2,7.1,3.2c-4-0.3-12.1,0.3-16.2,8.3C69.3,60.5,71.3,56.2,75,54.2z M80.5,60.2
						c-1.8,0-3.6,0.4-5.2,1.1c5.3-4.4,12.6-2.9,13-2.8c0.4,0.1,0.8-0.1,1-0.4c0.2-0.3,0.3-0.7,0.1-1.1c-2.9-5.5-9.8-7.6-15.3-4.7
						c-2.2,1.2-4,3.1-5,5.4c-1-2.3-2.8-4.2-5-5.4c-5.5-2.9-12.4-0.8-15.3,4.7c-0.3,0.5-0.1,1.1,0.4,1.4c0.2,0.1,0.5,0.1,0.7,0.1
						c2.4-0.4,4.8-0.4,7.2,0.1c2.1,0.4,4.1,1.3,5.8,2.7c-6.2-2.8-13.6-0.1-16.4,6.1c-0.7,1.6-1.1,3.4-1.1,5.2c0,0.4,0.2,0.7,0.6,0.9
						c0.4,0.2,0.8,0.1,1.1-0.2c2.1-1.6,4.5-2.9,7-3.6c1.7-0.5,3.5-0.7,5.2-0.7c-5.1,1.7-7.9,7.2-6.2,12.3c0.3,1,0.8,1.9,1.4,2.7
						c0.2,0.3,0.5,0.4,0.8,0.4h0.2c0.4-0.1,0.7-0.4,0.8-0.8c0.5-1.9,1.4-3.7,2.6-5.3c2.2-3.1,5.8-4.7,9.6-4.4v14.8h-2.6
						c-0.6,0-1,0.4-1,1s0.4,1,1,1H73c0.6,0,1-0.4,1-1s-0.4-1-1-1h-2.6V74.1c9.6-0.6,12,9.3,12.1,9.7c0.1,0.4,0.4,0.7,0.8,0.8h0.2
						c0.3,0,0.6-0.1,0.8-0.4c3.2-4.3,2.3-10.4-2-13.6c-0.9-0.6-1.8-1.1-2.8-1.4c1.7-0.1,3.4,0.2,5,0.7c2.6,0.8,5,2,7.1,3.7
						c0.4,0.3,1.1,0.2,1.4-0.2c0.1-0.2,0.2-0.3,0.2-0.5C93,65.8,87.4,60.2,80.5,60.2L80.5,60.2z"/>
				</g>
			</g>
		</g>
	</g>
</g>
</svg>
