<?xml version="1.0" encoding="utf-8"?>
<!-- Generator: Adobe Illustrator 21.0.0, SVG Export Plug-In . SVG Version: 6.00 Build 0)  -->
<svg version="1.1" id="Capa_2_1_" xmlns="http://www.w3.org/2000/svg" xmlns:xlink="http://www.w3.org/1999/xlink" x="0px" y="0px"
	 viewBox="0 0 106 100" style="enable-background:new 0 0 106 100;" xml:space="preserve">
<g id="Capa_2">
	<g id="Capa_1-2">
		<g>
			<defs>
				<rect id="SVGID_1_" y="10" width="105.9" height="79.6"/>
			</defs>
			<clipPath id="SVGID_2_">
				<use xlink:href="#SVGID_1_"  style="overflow:visible;"/>
			</clipPath>
			<g style="clip-path:url(#SVGID_2_);">
				<path style="fill:none;stroke:#211915;stroke-width:2.126;stroke-miterlimit:10;" d="M6.5,52.4H5.8c-2.6,0-4.8-2.1-4.8-4.8c0-2.6,2.1-4.8,4.8-4.8c0,0,0,0,0,0h94.3c2.6,0,4.8,2.1,4.8,4.8
					c0,2.6-2.1,4.8-4.8,4.8c0,0,0,0,0,0h-0.9l-4.7,30.2c-0.5,3.4-3.5,5.9-6.9,5.9H18.1c-3.5,0-6.4-2.5-6.9-5.9L6.5,52.4z"/>
				<path style="fill:#FFFFFF;" d="M86.4,63.7H67.7V43.9c0-2.5,2-4.6,4.6-4.6h9.6c2.5,0,4.6,2,4.6,4.6V63.7z"/>
				<path style="fill:none;stroke:#211915;stroke-width:2.126;stroke-miterlimit:10;" d="M86.4,63.7H67.7V43.9c0-2.5,2-4.6,4.6-4.6h9.6c2.5,0,4.6,2,4.6,4.6V63.7z"/>
				<circle style="fill:none;stroke:#211915;stroke-width:2.126;stroke-miterlimit:10;" cx="18.4" cy="28.8" r="6.6"/>
				<path style="fill:none;stroke:#211915;stroke-width:2.126;stroke-miterlimit:10;" d="M33,42.1c0-3.7,3-6.6,6.6-6.6s6.6,3,6.6,6.6c0,0,0,0,0,0"/>
				<circle style="fill:none;stroke:#211915;stroke-width:2.126;stroke-miterlimit:10;" cx="37.5" cy="15.1" r="4"/>
			</g>
		</g>
	</g>
</g>
</svg>
