<svg xmlns="http://www.w3.org/2000/svg" xmlns:xlink="http://www.w3.org/1999/xlink" viewBox="0 0 105.64 50.16"><defs><clipPath id="clip-path" transform="translate(0 0)"><rect width="105.64" height="50.17" style="fill:none"/></clipPath></defs><title>villas-icono-avioneta</title><g id="Capa_2" data-name="Capa 2"><g id="Capa_1-2" data-name="Capa 1"><g style="clip-path:url(#clip-path)"><path d="M47.42,9.88l2.13-1.71a27.83,27.83,0,0,1,17.37-6.1h2.25a27.86,27.86,0,0,1,11.3,2.4L91.43,9.34" transform="translate(0 0)" style="fill:none;stroke:#211915;stroke-miterlimit:10;stroke-width:2.125999927520752px"/><path d="M1.06,9.19V1.06h3a2,2,0,0,1,1.63.82l5.49,7.31" transform="translate(0 0)" style="fill:none;stroke:#211915;stroke-miterlimit:10;stroke-width:2.125999927520752px"/><path d="M75.53,22.54,71.73,49.1H59.05V18.62H72.38a3.14,3.14,0,0,1,3.14,3.14Z" transform="translate(0 0)" style="fill:none;stroke:#211915;stroke-miterlimit:10;stroke-width:2.125999927520752px"/><path d="M59.06,23.75,23.39,21.58C15.1,21,5.88,17.22,1.06,10.49v-1l45.84,0,.71.24A54.89,54.89,0,0,0,65,12.49H70.8a55.38,55.38,0,0,0,10.12-.94L92.19,9.44h3.87a2,2,0,0,1,2,2v6.1a6.07,6.07,0,0,1-6.1,6.1H75.53" transform="translate(0 0)" style="fill:none;stroke:#211915;stroke-miterlimit:10;stroke-width:2.125999927520752px"/><line x1="98.46" y1="15.54" x2="105.64" y2="15.54" style="fill:none;stroke:#211915;stroke-miterlimit:10;stroke-width:2.125999927520752px"/><line x1="103.7" y1="9.71" x2="103.7" y2="21.38" style="fill:none;stroke:#211915;stroke-miterlimit:10;stroke-width:2.125999927520752px"/></g></g></g></svg>