<?xml version="1.0" encoding="utf-8"?>
<!-- Generator: Adobe Illustrator 21.0.0, SVG Export Plug-In . SVG Version: 6.00 Build 0)  -->
<svg version="1.1" id="Capa_2_1_" xmlns="http://www.w3.org/2000/svg" xmlns:xlink="http://www.w3.org/1999/xlink" x="0px" y="0px"
	 viewBox="0 0 106 100" style="enable-background:new 0 0 106 100;" xml:space="preserve">
<g>
	<path d="M94.1,63.8c-3.8,0-5.6,2.4-7.3,4.5c-1.6,1.9-2.9,3.6-5.6,3.6c-2.7,0-4-1.7-5.6-3.6c-1.7-2.1-3.6-4.4-7.3-4.4
		c-3.7,0-5.6,2.4-7.3,4.4c-1.6,1.9-2.9,3.6-5.6,3.6c-2.7,0-4-1.7-5.6-3.6c-1.7-2.1-3.5-4.4-7.3-4.4c-3.8,0-5.6,2.4-7.3,4.4
		c-1.6,1.9-2.9,3.6-5.6,3.6c-2.7,0-4-1.7-5.6-3.6c-1.7-2.1-3.6-4.4-7.3-4.4c-0.6,0-1.1,0.5-1.1,1.1s0.5,1.1,1.1,1.1
		c2.7,0,4,1.7,5.6,3.6c1.7,2.1,3.6,4.4,7.3,4.4c3.7,0,5.6-2.4,7.3-4.4c1.6-1.9,2.9-3.6,5.6-3.6c2.7,0,4,1.7,5.6,3.6
		c1.7,2.1,3.5,4.4,7.3,4.4c3.8,0,5.6-2.4,7.3-4.4c1.6-1.9,2.9-3.6,5.6-3.6s4,1.7,5.6,3.6c1.7,2.1,3.6,4.4,7.3,4.4
		c3.8,0,5.6-2.4,7.3-4.5c1.6-1.9,2.9-3.6,5.6-3.6c0.6,0,1.1-0.5,1.1-1.1C95.2,64.3,94.7,63.8,94.1,63.8z"/>
	<path d="M41,33.9l0,17.5c-2.7,0.6-4.3,2.5-5.7,4.3c-1.6,1.9-2.9,3.6-5.6,3.6c-2.7,0-4-1.7-5.6-3.6c-1.7-2.1-3.6-4.4-7.3-4.4
		c-0.6,0-1.1,0.5-1.1,1.1s0.5,1.1,1.1,1.1c2.7,0,4,1.7,5.6,3.6c1.7,2.1,3.6,4.4,7.3,4.4c3.7,0,5.6-2.4,7.3-4.4
		c1.6-1.9,2.9-3.6,5.6-3.6c2.7,0,4,1.7,5.6,3.6c1.7,2.1,3.5,4.4,7.3,4.4c3.8,0,5.6-2.4,7.3-4.4c1.6-1.9,2.9-3.6,5.6-3.6
		s4,1.7,5.6,3.6c1.7,2.1,3.6,4.4,7.3,4.4c3.8,0,5.6-2.4,7.3-4.5c1.6-1.9,2.9-3.6,5.6-3.6c0.6,0,1.1-0.5,1.1-1.1
		c0-0.6-0.5-1.1-1.1-1.1c-3.8,0-5.6,2.4-7.3,4.5c-1.6,1.9-2.9,3.6-5.6,3.6c-2.7,0-4-1.7-5.6-3.6c-1.5-1.9-3.3-4.1-6.5-4.4l0-17.4
		h25.1c0.6,0,1-0.4,1-1s-0.4-1-1-1H69.1v-3.6c0-3.4-2.7-6.1-6.1-6.1c-3.4,0-6.1,2.7-6.1,6.1v3.6H43v-3.6c0-3.4-2.7-6.1-6.1-6.1
		c-3.4,0-6.1,2.7-6.1,6.1v3.6H16.2c-0.6,0-1,0.4-1,1s0.4,1,1,1H41z M67.1,51.3c-2.9,0.5-4.6,2.5-6.1,4.4c-1.6,1.9-2.9,3.6-5.6,3.6
		c-2.7,0-4-1.7-5.6-3.6c-1.6-2-3.4-4.2-6.9-4.4l0-4.7h24.1V51.3z M58.9,28.3c0-2.3,1.8-4.1,4.1-4.1c2.2,0,4.1,1.8,4.1,4.1v3.6h-8.2
		L58.9,28.3z M43,33.9l24.1,0v10.6l-24.1,0V33.9z M32.8,28.3c0-2.3,1.8-4.1,4.1-4.1S41,26,41,28.3v3.6h-8.2V28.3z"/>
</g>
</svg>
