<svg xmlns="http://www.w3.org/2000/svg" xmlns:xlink="http://www.w3.org/1999/xlink" viewBox="0 0 70.37 70.4"><defs><clipPath id="clip-path" transform="translate(0)"><rect width="70.37" height="70.4" style="fill:none"/></clipPath></defs><title>whatsapp-white</title><g id="Capa_2" data-name="Capa 2"><g id="Capa_1-2" data-name="Capa 1"><g style="clip-path:url(#clip-path)"><path d="M16.75,63.54l1.23.73A33.71,33.71,0,0,0,35.17,69h0A33.77,33.77,0,1,0,6.58,53.16l.8,1.28L4,66.9Z" transform="translate(0)" style="fill:none;stroke:#fff;stroke-linecap:round;stroke-miterlimit:10;stroke-width:2.8350000381469727px"/><path d="M53.48,43.53c-.23-.38-.83-.61-1.74-1.06s-5.38-2.65-6.21-3-1.44-.45-2,.45-2.35,3-2.88,3.56-1.06.68-2,.23a24.84,24.84,0,0,1-7.31-4.51,27.44,27.44,0,0,1-5.06-6.3c-.53-.91-.06-1.4.4-1.86S27.57,30,28,29.5A6.18,6.18,0,0,0,28.93,28a1.67,1.67,0,0,0-.08-1.59c-.23-.46-2-4.93-2.8-6.75s-1.49-1.53-2-1.56-1.14,0-1.74,0a3.34,3.34,0,0,0-2.42,1.14,10.19,10.19,0,0,0-3.18,7.58c0,4.48,3.26,8.8,3.71,9.41S26.78,46,35.9,49.9a52.3,52.3,0,0,0,5.18,1.91,12.46,12.46,0,0,0,5.73.36c1.75-.26,5.38-2.2,6.14-4.32A7.61,7.61,0,0,0,53.48,43.53Z" transform="translate(0)" style="fill:none;stroke:#fff;stroke-linecap:round;stroke-miterlimit:10;stroke-width:2.8350000381469727px"/></g></g></g></svg>