<?xml version="1.0" encoding="utf-8"?>
<!-- Generator: Adobe Illustrator 21.0.0, SVG Export Plug-In . SVG Version: 6.00 Build 0)  -->
<svg version="1.1" id="Capa_2_1_" xmlns="http://www.w3.org/2000/svg" xmlns:xlink="http://www.w3.org/1999/xlink" x="0px" y="0px"
	 viewBox="0 0 106 100" style="enable-background:new 0 0 106 100;" xml:space="preserve">
<g id="Capa_2_2_">
	<g id="Capa_1-2_1_">
		<g>
			<g>
				<defs>
					<rect id="SVGID_1_" x="5" y="20" width="96.3" height="60.4"/>
				</defs>
				<clipPath id="SVGID_2_">
					<use xlink:href="#SVGID_1_"  style="overflow:visible;"/>
				</clipPath>
				<g style="clip-path:url(#SVGID_2_);">
					<path style="fill:none;stroke:#211915;stroke-width:2.126;stroke-linecap:round;stroke-linejoin:round;" d="M31.1,58.2
						c-0.1-0.9-0.2-1.9-0.2-2.8c0-12.3,10-22.2,22.3-22.2s22.2,10,22.2,22.3c0,0.8,0,1.7-0.1,2.5"/>
					
						<line style="fill:none;stroke:#211915;stroke-width:2.126;stroke-linecap:round;stroke-linejoin:round;" x1="52.9" y1="27.4" x2="52.9" y2="21.1"/>
					
						<line style="fill:none;stroke:#211915;stroke-width:2.126;stroke-linecap:round;stroke-linejoin:round;" x1="34.4" y1="33" x2="30.1" y2="28.4"/>
					
						<line style="fill:none;stroke:#211915;stroke-width:2.126;stroke-linecap:round;stroke-linejoin:round;" x1="24.5" y1="46.1" x2="18.2" y2="45.6"/>
					
						<line style="fill:none;stroke:#211915;stroke-width:2.126;stroke-linecap:round;stroke-linejoin:round;" x1="71.9" y1="33" x2="76.2" y2="28.4"/>
					
						<line style="fill:none;stroke:#211915;stroke-width:2.126;stroke-linecap:round;stroke-linejoin:round;" x1="81.8" y1="46.1" x2="88.1" y2="45.6"/>
					<path d="M100.2,53.9c-4.5,0-6.7,2.8-8.7,5.3s-3.6,4.5-6.9,4.5s-5-2.1-6.9-4.5s-4.3-5.3-8.7-5.3s-6.7,2.8-8.7,5.3
						s-3.6,4.5-6.9,4.5s-5-2.1-6.9-4.5s-4.3-5.3-8.7-5.3s-6.7,2.8-8.7,5.3s-3.6,4.5-6.9,4.5s-5-2.1-6.9-4.5s-4.3-5.3-8.7-5.3
						c-0.6,0-1.2,0.5-1.2,1.2c0,0.6,0.5,1.2,1.2,1.2c3.4,0,5,2.1,6.9,4.5s4.3,5.3,8.7,5.3s6.7-2.8,8.7-5.3s3.6-4.5,6.9-4.5
						s5,2.1,6.9,4.5s4.3,5.3,8.7,5.3s6.7-2.8,8.7-5.3c2-2.5,3.6-4.5,6.9-4.5s5,2.1,6.9,4.5S80,66,84.5,66s6.7-2.8,8.7-5.3
						s3.6-4.5,6.9-4.5c0.6,0,1.2-0.5,1.2-1.1l0,0C101.3,54.4,100.8,53.9,100.2,53.9"/>
					<path d="M100.2,68.3c-4.5,0-6.7,2.8-8.7,5.3s-3.6,4.5-6.9,4.5s-5-2.1-6.9-4.5s-4.3-5.3-8.7-5.3c-4.5,0-6.7,2.8-8.7,5.3
						s-3.6,4.5-6.9,4.5s-5-2.1-6.9-4.5s-4.3-5.3-8.7-5.3s-6.7,2.8-8.7,5.3s-3.6,4.5-6.9,4.5s-5-2.1-6.9-4.5s-4.3-5.3-8.7-5.3
						c-0.6,0-1.2,0.5-1.2,1.2c0,0.6,0.5,1.2,1.2,1.2c3.4,0,5,2.1,6.9,4.5s4.3,5.3,8.7,5.3s6.7-2.8,8.7-5.3s3.6-4.5,6.9-4.5
						s5,2.1,6.9,4.5s4.3,5.3,8.7,5.3s6.7-2.8,8.7-5.3c2-2.5,3.6-4.5,6.9-4.5s5,2.1,6.9,4.5s4.3,5.3,8.7,5.3s6.7-2.8,8.7-5.3
						s3.6-4.5,6.9-4.5c0.6,0,1.2-0.5,1.2-1.1l0,0C101.3,68.8,100.8,68.3,100.2,68.3"/>
				</g>
			</g>
		</g>
	</g>
</g>
</svg>
