<?xml version="1.0" encoding="utf-8"?>
<!-- Generator: Adobe Illustrator 21.0.0, SVG Export Plug-In . SVG Version: 6.00 Build 0)  -->
<svg version="1.1" id="Capa_2_1_" xmlns="http://www.w3.org/2000/svg" xmlns:xlink="http://www.w3.org/1999/xlink" x="0px" y="0px"
	 viewBox="0 0 106 100" style="enable-background:new 0 0 106 100;" xml:space="preserve">
<g id="Capa_2">
	<g id="Capa_1-2">
		<g>
			<defs>
				<rect id="SVGID_1_" x="11" y="8" width="84.7" height="84.6"/>
			</defs>
			<clipPath id="SVGID_2_">
				<use xlink:href="#SVGID_1_"  style="overflow:visible;"/>
			</clipPath>
			<g style="clip-path:url(#SVGID_2_);">
				<path style="fill:none;stroke:#211915;stroke-width:2.126;stroke-miterlimit:10;" d="M19.5,9.1h67.6c4.1,0,7.5,3.3,7.5,7.5v62.2
					c0,4.1-3.3,7.5-7.5,7.5H19.5c-4.1,0-7.5-3.3-7.5-7.5V16.5C12.1,12.4,15.4,9.1,19.5,9.1z"/>
				<path style="fill:none;stroke:#211915;stroke-width:2.126;stroke-miterlimit:10;" d="M36.1,21.2h40.2c3.6,0,6.5,2.9,6.5,6.5
					v40.2c0,3.6-2.9,6.5-6.5,6.5H36.1c-3.6,0-6.5-2.9-6.5-6.5V27.6C29.6,24.1,32.5,21.2,36.1,21.2z"/>
				
					<line style="fill:none;stroke:#211915;stroke-width:2.126;stroke-linecap:round;stroke-linejoin:round;" x1="24.2" y1="27.8" x2="29.6" y2="27.8"/>
				
					<line style="fill:none;stroke:#211915;stroke-width:2.126;stroke-linecap:round;stroke-linejoin:round;" x1="24.2" y1="67.6" x2="29.6" y2="67.6"/>
				
					<line style="fill:none;stroke:#211915;stroke-width:2.126;stroke-linecap:round;stroke-linejoin:round;" x1="24.2" y1="86.2" x2="24.2" y2="91.6"/>
				
					<line style="fill:none;stroke:#211915;stroke-width:2.126;stroke-linecap:round;stroke-linejoin:round;" x1="82.8" y1="86.2" x2="82.8" y2="91.6"/>
				<circle style="fill:none;stroke:#211915;stroke-width:2.126;stroke-miterlimit:10;" cx="56.2" cy="47.8" r="9.6"/>
				<circle style="fill:none;stroke:#211915;stroke-width:2.126;stroke-miterlimit:10;" cx="56.2" cy="47.8" r="5"/>
			</g>
		</g>
	</g>
</g>
</svg>
