<svg xmlns="http://www.w3.org/2000/svg" xmlns:xlink="http://www.w3.org/1999/xlink" viewBox="0 0 96.44 61.17"><defs><clipPath id="clip-path" transform="translate(0)"><rect width="96.44" height="61.17" style="fill:none"/></clipPath></defs><title>villas-icono-shuttle</title><g id="Capa_2" data-name="Capa 2"><g id="Capa_1-2" data-name="Capa 1"><line x1="60.82" y1="52.85" x2="33.82" y2="52.85" style="fill:none;stroke:#211915;stroke-miterlimit:10;stroke-width:2.125999927520752px"/><g style="clip-path:url(#clip-path)"><path d="M16,52.85H9.94A8.88,8.88,0,0,1,1.06,44v-34A8.88,8.88,0,0,1,9.94,1.06H70.79A6.77,6.77,0,0,1,76,3.49L94.13,25.21a5.35,5.35,0,0,1,1.24,3.43V44a8.88,8.88,0,0,1-8.88,8.88h-7.9" transform="translate(0)" style="fill:none;stroke:#211915;stroke-miterlimit:10;stroke-width:2.125999927520752px"/><rect x="20.45" y="8.1" width="26.55" height="19.87" rx="4.97" ry="4.97" style="fill:none;stroke:#211915;stroke-miterlimit:10;stroke-width:2.125999927520752px"/><path d="M95.33,28.05,61.76,28a5,5,0,0,1-5-5V13.06a5,5,0,0,1,5-5l18.06,0" transform="translate(0)" style="fill:none;stroke:#211915;stroke-miterlimit:10;stroke-width:2.125999927520752px"/><path d="M25,54.21a3,3,0,1,1,3-3A3,3,0,0,1,25,54.21Z" transform="translate(0)" style="fill:none;stroke:#211915;stroke-miterlimit:10;stroke-width:2.125999927520752px"/><path d="M25,60.11a8.87,8.87,0,1,1,8.87-8.87A8.87,8.87,0,0,1,25,60.11Z" transform="translate(0)" style="fill:none;stroke:#211915;stroke-miterlimit:10;stroke-width:2.125999927520752px"/><path d="M69.6,54.21a3,3,0,1,1,3-3A3,3,0,0,1,69.6,54.21Z" transform="translate(0)" style="fill:none;stroke:#211915;stroke-miterlimit:10;stroke-width:2.125999927520752px"/><path d="M69.59,60.11a8.87,8.87,0,1,1,8.87-8.87,8.87,8.87,0,0,1-8.87,8.87Z" transform="translate(0)" style="fill:none;stroke:#211915;stroke-miterlimit:10;stroke-width:2.125999927520752px"/><line x1="61.2" y1="34.41" x2="66.17" y2="34.41" style="fill:none;stroke:#211915;stroke-miterlimit:10;stroke-width:2.125999927520752px"/><path d="M95.26,34.47H89A3.26,3.26,0,0,0,89,41h6.27" transform="translate(0)" style="fill:none;stroke:#211915;stroke-miterlimit:10;stroke-width:2.125999927520752px"/></g></g></g></svg>