<?xml version="1.0" encoding="utf-8"?>
<!-- Generator: Adobe Illustrator 21.0.0, SVG Export Plug-In . SVG Version: 6.00 Build 0)  -->
<svg version="1.1" id="Capa_1" xmlns="http://www.w3.org/2000/svg" xmlns:xlink="http://www.w3.org/1999/xlink" x="0px" y="0px"
	 viewBox="0 0 106 100" style="enable-background:new 0 0 106 100;" xml:space="preserve">
<g id="Capa_2">
	<g id="Capa_1-2">
		<g>
			<defs>
				<rect id="SVGID_1_" x="11" y="24" width="84.5" height="51.6"/>
			</defs>
			<clipPath id="SVGID_2_">
				<use xlink:href="#SVGID_1_"  style="overflow:visible;"/>
			</clipPath>
			<g style="clip-path:url(#SVGID_2_);">
				<path style="fill:none;stroke:#211915;stroke-width:2.126;stroke-miterlimit:10;" d="M19.1,25.1h68.3c3.9,0,7,3.1,7,7v20.1
					c0,3.9-3.1,7-7,7H19.1c-3.9,0-7-3.1-7-7V32.1C12.1,28.2,15.2,25.1,19.1,25.1L19.1,25.1z"/>
				<path style="fill:none;stroke:#211915;stroke-width:2.126;stroke-miterlimit:10;" d="M26.4,59.2v-6.8c0-3.3,2.7-6,6-6l0,0h41.3
					c3.3,0,6,2.7,6,6v6.8"/>
				<circle style="fill:none;stroke:#211915;stroke-width:2.126;stroke-miterlimit:10;" cx="83.2" cy="35.6" r="2.9"/>
				
					<line style="fill:none;stroke:#211915;stroke-width:2.126;stroke-linecap:round;stroke-linejoin:round;" x1="60.7" y1="35.6" x2="73.7" y2="35.6"/>
				
					<line style="fill:none;stroke:#211915;stroke-width:2.126;stroke-linecap:round;stroke-linejoin:round;" x1="30.5" y1="64.9" x2="30.5" y2="74.6"/>
				
					<line style="fill:none;stroke:#211915;stroke-width:2.126;stroke-linecap:round;stroke-linejoin:round;" x1="45.7" y1="64.9" x2="45.7" y2="74.6"/>
				
					<line style="fill:none;stroke:#211915;stroke-width:2.126;stroke-linecap:round;stroke-linejoin:round;" x1="60.8" y1="64.9" x2="60.8" y2="74.6"/>
				
					<line style="fill:none;stroke:#211915;stroke-width:2.126;stroke-linecap:round;stroke-linejoin:round;" x1="75.9" y1="64.9" x2="75.9" y2="74.6"/>
			</g>
		</g>
	</g>
</g>
</svg>
