<?xml version="1.0" encoding="utf-8"?>
<!-- Generator: Adobe Illustrator 21.0.0, SVG Export Plug-In . SVG Version: 6.00 Build 0)  -->
<svg version="1.1" id="Capa_2_1_" xmlns="http://www.w3.org/2000/svg" xmlns:xlink="http://www.w3.org/1999/xlink" x="0px" y="0px"
	 viewBox="0 0 106 100" style="enable-background:new 0 0 106 100;" xml:space="preserve">
<g id="Capa_2">
	<g id="Capa_1-2">
		<g>
			<defs>
				<rect id="SVGID_1_" x="18" y="9" width="70.7" height="83.2"/>
			</defs>
			<clipPath id="SVGID_2_">
				<use xlink:href="#SVGID_1_"  style="overflow:visible;"/>
			</clipPath>
			<g style="clip-path:url(#SVGID_2_);">
				<path style="fill:none;stroke:#211915;stroke-width:2.126;stroke-miterlimit:10;" d="M27.3,10.1h52.2c4.5,0,8.2,3.7,8.2,8.2
					v60.5c0,4.5-3.7,8.2-8.2,8.2H27.3c-4.5,0-8.2-3.7-8.2-8.2V18.3C19.1,13.7,22.7,10.1,27.3,10.1z"/>
				<path style="fill:none;stroke:#211915;stroke-width:2.338;stroke-miterlimit:10;" d="M25.8,87v2c0,1.1,0.9,2,2.1,2h6.9
					c1.1,0,2-0.9,2-2v-2"/>
				<path style="fill:none;stroke:#211915;stroke-width:2.338;stroke-miterlimit:10;" d="M68.6,87v2c0,1.1,0.9,2,2.1,2h6.9
					c1.1,0,2-0.9,2.1-2v-2"/>
				<polyline style="fill:none;stroke:#211915;stroke-width:2.338;stroke-linecap:round;stroke-linejoin:round;" points="82.2,55.4 
					78.6,56.4 78.6,40.7 82.2,41.7 				"/>
				<path d="M50.1,74.9c0,0.6-0.4,1-1,1H34.3c-0.6,0-1-0.4-1-1V50.7c0.2-3.7,1.1-7.4,2.7-10.8c2.3-4.1,3.5-8.7,3.5-13.4v-1H44v1.1
					c0,4.7,1.2,9.3,3.4,13.4c1.6,3.4,2.5,7,2.6,10.7L50.1,74.9z M45.1,21.1v3h-6.8v-3H45.1z M45.4,26.6v-1.1
					c0.6-0.2,1.1-0.7,1.1-1.4v-3c0-0.8-0.6-1.4-1.4-1.4l0,0h-6.8c-0.8,0-1.4,0.6-1.4,1.4l0,0v3c0,0.7,0.5,1.3,1.3,1.4v1
					c0,4.5-1.2,8.8-3.3,12.8c-1.7,3.6-2.7,7.5-2.9,11.4v24.2c0,1.3,1.1,2.4,2.4,2.4h14.8c1.3,0,2.4-1.1,2.4-2.4V50.7
					c-0.2-3.9-1.1-7.8-2.8-11.3C46.6,35.4,45.5,31.1,45.4,26.6"/>
				<path style="fill:none;stroke:#211915;stroke-width:0.709;stroke-miterlimit:10;" d="M50.1,74.9c0,0.6-0.4,1-1,1H34.3
					c-0.6,0-1-0.4-1-1V50.7c0.2-3.7,1.1-7.4,2.7-10.8c2.3-4.1,3.5-8.7,3.5-13.4v-1H44v1.1c0,4.7,1.2,9.3,3.4,13.4
					c1.6,3.4,2.5,7,2.6,10.7L50.1,74.9z M45.1,21.1v3h-6.8v-3H45.1z M45.4,26.6v-1.1c0.6-0.2,1.1-0.7,1.1-1.4v-3
					c0-0.8-0.6-1.4-1.4-1.4l0,0h-6.8c-0.8,0-1.4,0.6-1.4,1.4l0,0v3c0,0.7,0.5,1.3,1.3,1.4v1c0,4.5-1.2,8.8-3.3,12.8
					c-1.7,3.6-2.7,7.5-2.9,11.4v24.2c0,1.3,1.1,2.4,2.4,2.4h14.8c1.3,0,2.4-1.1,2.4-2.4V50.7c-0.2-3.9-1.1-7.8-2.8-11.3
					C46.6,35.4,45.5,31.1,45.4,26.6L45.4,26.6z"/>
				<path style="fill:none;stroke:#211915;stroke-width:2.126;stroke-linecap:round;stroke-linejoin:round;" d="M84.2,85.5
					l-16.7-7.1c-1.9-0.8-3.2-2.7-3.2-4.8v-50c0-2.1,1.3-4,3.2-4.9l16.7-7.1"/>
			</g>
		</g>
	</g>
</g>
</svg>
